<?xml version="1.0" encoding="UTF-8"?> <svg xmlns="http://www.w3.org/2000/svg" width="40" height="40" viewBox="0 0 40 40" fill="none"> <rect width="40" height="40" rx="20" fill="#3B06EB"></rect> <path d="M20.5049 19.918C20.5049 22.76 19.5249 24.118 17.9149 24.118C16.3049 24.118 15.3249 22.76 15.3249 19.918C15.3249 17.104 16.3049 15.732 17.9149 15.732C19.4969 15.732 20.5049 17.104 20.5049 19.918ZM21.8629 19.918C21.8629 16.712 20.6169 14.668 17.9149 14.668C15.2129 14.668 13.9669 16.712 13.9669 19.918C13.9669 23.124 15.2129 25.182 17.9149 25.182C20.6169 25.182 21.8629 23.124 21.8629 19.918ZM26.3448 25V14.85H25.4768C24.9308 15.942 24.1608 16.152 22.7188 16.194V17.062H25.0708V25H26.3448Z" fill="white"></path> </svg> 