<?xml version="1.0" encoding="UTF-8"?> <svg xmlns="http://www.w3.org/2000/svg" width="40" height="40" viewBox="0 0 40 40" fill="none"> <rect width="40" height="40" rx="20" fill="#3B06EB"></rect> <path d="M18.4532 19.918C18.4532 22.76 17.4732 24.118 15.8632 24.118C14.2532 24.118 13.2732 22.76 13.2732 19.918C13.2732 17.104 14.2532 15.732 15.8632 15.732C17.4452 15.732 18.4532 17.104 18.4532 19.918ZM19.8112 19.918C19.8112 16.712 18.5652 14.668 15.8632 14.668C13.1612 14.668 11.9152 16.712 11.9152 19.918C11.9152 23.124 13.1612 25.182 15.8632 25.182C18.5652 25.182 19.8112 23.124 19.8112 19.918ZM24.727 14.668C22.557 14.668 21.157 15.998 21.199 18.014H22.515C22.557 16.334 23.607 15.732 24.699 15.732C25.917 15.732 26.603 16.432 26.603 17.496C26.603 19.302 24.503 21.206 20.919 23.852V25H28.227V23.81H22.655C25.497 21.752 27.947 19.68 27.947 17.328C27.947 15.606 26.603 14.668 24.727 14.668Z" fill="white"></path> </svg> 