<?xml version="1.0" encoding="UTF-8"?> <svg xmlns="http://www.w3.org/2000/svg" width="40" height="40" viewBox="0 0 40 40" fill="none"> <rect width="40" height="40" rx="20" fill="#3B06EB"></rect> <path d="M18.4737 19.918C18.4737 22.76 17.4937 24.118 15.8837 24.118C14.2737 24.118 13.2937 22.76 13.2937 19.918C13.2937 17.104 14.2737 15.732 15.8837 15.732C17.4657 15.732 18.4737 17.104 18.4737 19.918ZM19.8317 19.918C19.8317 16.712 18.5857 14.668 15.8837 14.668C13.1817 14.668 11.9357 16.712 11.9357 19.918C11.9357 23.124 13.1817 25.182 15.8837 25.182C18.5857 25.182 19.8317 23.124 19.8317 19.918ZM24.4675 24.118C23.0255 24.118 22.3115 23.25 22.1575 22.004H20.8415C20.9955 23.698 22.0455 25.182 24.4535 25.182C26.3995 25.182 28.1215 24.188 28.1215 22.144C28.1215 21.066 27.7015 20.086 26.1895 19.596C27.2535 19.162 27.8415 18.294 27.8415 17.244C27.8415 15.382 26.3015 14.668 24.5515 14.668C22.4235 14.668 21.1495 15.914 20.9955 17.706H22.3115C22.4235 16.544 23.1655 15.732 24.5235 15.732C25.6015 15.732 26.4975 16.306 26.4975 17.384C26.4975 18.574 25.5735 19.064 23.7955 19.064H23.6275V20.226H23.8375C25.4615 20.226 26.7635 20.702 26.7635 22.158C26.7635 23.432 25.8115 24.118 24.4675 24.118Z" fill="white"></path> </svg> 