<?xml version="1.0" encoding="UTF-8"?> <svg xmlns="http://www.w3.org/2000/svg" width="40" height="40" viewBox="0 0 40 40" fill="none"> <rect width="40" height="40" rx="20" fill="#3B06EB"></rect> <path d="M18.2139 19.918C18.2139 22.76 17.2339 24.118 15.6239 24.118C14.0139 24.118 13.0339 22.76 13.0339 19.918C13.0339 17.104 14.0139 15.732 15.6239 15.732C17.2059 15.732 18.2139 17.104 18.2139 19.918ZM19.5719 19.918C19.5719 16.712 18.3259 14.668 15.6239 14.668C12.9219 14.668 11.6759 16.712 11.6759 19.918C11.6759 23.124 12.9219 25.182 15.6239 25.182C18.3259 25.182 19.5719 23.124 19.5719 19.918ZM25.5378 16.6V21.29H21.9118L25.5378 16.6ZM28.6878 21.29H26.8258V14.85H25.5238L20.4978 21.29V22.494H25.5378V25H26.8258V22.494H28.6878V21.29Z" fill="white"></path> </svg> 